<mxfile host="app.diagrams.net" modified="2024-01-22T17:10:38.579Z" agent="Mozilla/5.0 (Windows NT 10.0; Win64; x64) AppleWebKit/537.36 (KHTML, like Gecko) Chrome/120.0.0.0 Safari/537.36" etag="BH3i_76MChgIcQ0AzvlZ" version="22.1.21" type="github">
  <diagram name="Page-1" id="df1fDY7C39LOkRKU9__Z">
    <mxGraphModel dx="1434" dy="746" grid="1" gridSize="10" guides="1" tooltips="1" connect="1" arrows="1" fold="1" page="1" pageScale="1" pageWidth="850" pageHeight="1100" math="0" shadow="0">
      <root>
        <mxCell id="0" />
        <mxCell id="1" parent="0" />
        <mxCell id="nWHsgZnryIvwV-E4HBbC-1" value="&lt;b&gt;User&lt;/b&gt;" style="sketch=0;outlineConnect=0;fontColor=#232F3E;gradientColor=none;strokeColor=#232F3E;fillColor=#ffffff;dashed=0;verticalLabelPosition=bottom;verticalAlign=top;align=center;html=1;fontSize=12;fontStyle=0;aspect=fixed;shape=mxgraph.aws4.resourceIcon;resIcon=mxgraph.aws4.user;" parent="1" vertex="1">
          <mxGeometry x="120" y="290" width="60" height="60" as="geometry" />
        </mxCell>
        <mxCell id="nWHsgZnryIvwV-E4HBbC-2" value="&lt;b&gt;To Do App&lt;/b&gt;" style="rounded=0;whiteSpace=wrap;html=1;fillColor=#b1ddf0;strokeColor=#10739e;" parent="1" vertex="1">
          <mxGeometry x="365" y="290" width="120" height="60" as="geometry" />
        </mxCell>
        <object label="Views, updates, creates, deletes&lt;br&gt;To Do items" id="nWHsgZnryIvwV-E4HBbC-3">
          <mxCell style="endArrow=block;endFill=1;html=1;edgeStyle=orthogonalEdgeStyle;align=left;verticalAlign=top;rounded=0;" parent="1" edge="1">
            <mxGeometry x="-1" relative="1" as="geometry">
              <mxPoint x="190" y="319.5" as="sourcePoint" />
              <mxPoint x="350" y="319.5" as="targetPoint" />
              <mxPoint as="offset" />
            </mxGeometry>
          </mxCell>
        </object>
        <mxCell id="nWHsgZnryIvwV-E4HBbC-4" value="1" style="edgeLabel;resizable=0;html=1;align=left;verticalAlign=bottom;" parent="nWHsgZnryIvwV-E4HBbC-3" connectable="0" vertex="1">
          <mxGeometry x="-1" relative="1" as="geometry" />
        </mxCell>
        <mxCell id="nWHsgZnryIvwV-E4HBbC-6" value="&lt;b&gt;Trello&lt;/b&gt;" style="shape=cylinder3;whiteSpace=wrap;html=1;boundedLbl=1;backgroundOutline=1;size=15;fillColor=#fad9d5;strokeColor=#ae4132;" parent="1" vertex="1">
          <mxGeometry x="680" y="280" width="60" height="80" as="geometry" />
        </mxCell>
        <mxCell id="nWHsgZnryIvwV-E4HBbC-7" value="Gets information from and stores&lt;br&gt;&amp;nbsp;To Do items" style="endArrow=block;endFill=1;html=1;edgeStyle=orthogonalEdgeStyle;align=left;verticalAlign=top;rounded=0;" parent="1" edge="1">
          <mxGeometry x="-1" relative="1" as="geometry">
            <mxPoint x="510" y="320" as="sourcePoint" />
            <mxPoint x="670" y="320" as="targetPoint" />
            <Array as="points">
              <mxPoint x="590" y="319.5" />
              <mxPoint x="590" y="320.5" />
            </Array>
            <mxPoint as="offset" />
          </mxGeometry>
        </mxCell>
        <mxCell id="nWHsgZnryIvwV-E4HBbC-8" value="2" style="edgeLabel;resizable=0;html=1;align=left;verticalAlign=bottom;" parent="nWHsgZnryIvwV-E4HBbC-7" connectable="0" vertex="1">
          <mxGeometry x="-1" relative="1" as="geometry" />
        </mxCell>
      </root>
    </mxGraphModel>
  </diagram>
</mxfile>
